<?xml version="1.0" encoding="UTF-8" standalone="no"?><!DOCTYPE svg PUBLIC "-//W3C//DTD SVG 1.1//EN" "http://www.w3.org/Graphics/SVG/1.1/DTD/svg11.dtd"><svg width="100%" height="100%" viewBox="0 0 261 259" version="1.1" xmlns="http://www.w3.org/2000/svg" xmlns:xlink="http://www.w3.org/1999/xlink" xml:space="preserve" xmlns:serif="http://www.serif.com/" style="fill-rule:evenodd;clip-rule:evenodd;stroke-miterlimit:1.41421;"><g><path d="M84.398,11.167c26.196,-10.161 54.061,-11.16 79.724,-4.293" style="fill:none;stroke:#3b2416;stroke-width:2.86px;"/><path d="M161.822,12.047l10.244,-2.702l-7.463,-7.52l-2.781,10.222Z" style="fill:#3b2416;fill-rule:nonzero;"/><path d="M249.099,82.766c10.255,26.16 11.353,54.021 4.578,79.708" style="fill:none;stroke:#3b2416;stroke-width:2.86px;"/><path d="M248.496,160.192l2.739,10.234l7.493,-7.489l-10.232,-2.745Z" style="fill:#3b2416;fill-rule:nonzero;"/><path d="M171.394,249.076c-26.476,9.409 -54.358,9.613 -79.815,2.016" style="fill:none;stroke:#3b2416;stroke-width:2.86px;"/><path d="M94.026,245.987l-10.316,2.408l7.244,7.73l3.072,-10.138Z" style="fill:#3b2416;fill-rule:nonzero;"/><path d="M8.726,170.322c-8.656,-26.732 -8.07,-54.609 0.244,-79.84" style="fill:none;stroke:#3b2416;stroke-width:2.86px;"/><path d="M14.003,93.072l-2.116,-10.38l-7.931,7.023l10.047,3.357Z" style="fill:#3b2416;fill-rule:nonzero;"/></g></svg>